<svg xmlns="http://www.w3.org/2000/svg" width="24" height="24" viewBox="0 0 24 24"><g><rect fill="#fff" width="24" height="24" rx="4"/><g><path fill="#4285F4" d="M21.805 12.223c0-.638-.057-1.252-.163-1.84H12v3.481h5.509a4.71 4.71 0 0 1-2.044 3.09v2.563h3.303c1.93-1.78 3.037-4.4 3.037-7.294z"/><path fill="#34A853" d="M12 22c2.754 0 5.07-.91 6.76-2.47l-3.303-2.563c-.915.613-2.08.977-3.457.977-2.656 0-4.904-1.794-5.713-4.205H2.868v2.637A9.997 9.997 0 0 0 12 22z"/><path fill="#FBBC05" d="M6.287 13.739A5.997 5.997 0 0 1 6 12c0-.604.104-1.188.287-1.739V7.624H2.868A9.997 9.997 0 0 0 2 12c0 1.604.384 3.123 1.06 4.376l4.227-2.637z"/><path fill="#EA4335" d="M12 6.875c1.5 0 2.84.516 3.898 1.527l2.924-2.924C17.07 3.91 14.754 3 12 3A9.997 9.997 0 0 0 2.868 7.624l4.227 2.637C7.096 8.669 9.344 6.875 12 6.875z"/></g></g></svg>